<svg width="80" height="80" viewBox="0 0 80 80" fill="none" xmlns="http://www.w3.org/2000/svg">
<path d="M46.629 28.0788C46.9805 28.4304 47.178 28.9072 47.178 29.4044C47.178 29.9016 46.9805 30.3784 46.629 30.73L37.3478 40.0113L46.629 49.2925C46.9706 49.6461 47.1595 50.1198 47.1553 50.6114C47.151 51.103 46.9538 51.5733 46.6062 51.9209C46.2585 52.2686 45.7883 52.4658 45.2966 52.47C44.805 52.4743 44.3314 52.2853 43.9778 51.9438L33.3709 41.3369C33.0194 40.9853 32.8219 40.5084 32.8219 40.0113C32.8219 39.5141 33.0194 39.0372 33.3709 38.6856L43.9778 28.0788C44.3294 27.7273 44.8062 27.5298 45.3034 27.5298C45.8006 27.5298 46.2774 27.7273 46.629 28.0788Z" fill="black"/>
<rect x="-0.5" y="0.5" width="79" height="79" rx="39.5" transform="matrix(-1 0 0 1 79 0)" stroke="black"/>
</svg>
