<svg width="80" height="80" viewBox="0 0 80 80" fill="none" xmlns="http://www.w3.org/2000/svg">
<rect width="80" height="80" rx="40" fill="#D7F5DC"/>
<path d="M33.371 28.0788C33.0195 28.4304 32.822 28.9072 32.822 29.4044C32.822 29.9016 33.0195 30.3784 33.371 30.73L42.6522 40.0113L33.371 49.2925C33.0294 49.6461 32.8405 50.1198 32.8447 50.6114C32.849 51.103 33.0462 51.5733 33.3938 51.9209C33.7415 52.2686 34.2117 52.4658 34.7034 52.47C35.195 52.4743 35.6686 52.2853 36.0222 51.9438L46.6291 41.3369C46.9806 40.9853 47.1781 40.5084 47.1781 40.0113C47.1781 39.5141 46.9806 39.0372 46.6291 38.6856L36.0222 28.0788C35.6706 27.7273 35.1938 27.5298 34.6966 27.5298C34.1994 27.5298 33.7226 27.7273 33.371 28.0788Z" fill="black"/>
</svg>
