<svg width="250" height="54" viewBox="0 0 250 54" fill="none" xmlns="http://www.w3.org/2000/svg">
<mask id="path-1-inside-1_2_213" fill="white">
<path d="M0 0H250V54H0V0Z"/>
</mask>
<path d="M0 0H250V54H0V0Z" fill="white"/>
<path d="M22.688 31.816H26.592V33H21.232V21.848H22.688V31.816ZM36.1383 28.28C36.1383 28.5573 36.1223 28.8507 36.0903 29.16H29.0823C29.1356 30.024 29.4289 30.7013 29.9623 31.192C30.5063 31.672 31.1623 31.912 31.9303 31.912C32.5596 31.912 33.0823 31.768 33.4983 31.48C33.9249 31.1813 34.2236 30.7867 34.3943 30.296H35.9623C35.7276 31.1387 35.2583 31.8267 34.5543 32.36C33.8503 32.8827 32.9756 33.144 31.9303 33.144C31.0983 33.144 30.3516 32.9573 29.6903 32.584C29.0396 32.2107 28.5276 31.6827 28.1543 31C27.7809 30.3067 27.5943 29.5067 27.5943 28.6C27.5943 27.6933 27.7756 26.8987 28.1383 26.216C28.5009 25.5333 29.0076 25.0107 29.6583 24.648C30.3196 24.2747 31.0769 24.088 31.9303 24.088C32.7623 24.088 33.4983 24.2693 34.1383 24.632C34.7783 24.9947 35.2689 25.496 35.6103 26.136C35.9623 26.7653 36.1383 27.48 36.1383 28.28ZM34.6343 27.976C34.6343 27.4213 34.5116 26.9467 34.2663 26.552C34.0209 26.1467 33.6849 25.8427 33.2583 25.64C32.8423 25.4267 32.3783 25.32 31.8663 25.32C31.1303 25.32 30.5009 25.5547 29.9783 26.024C29.4663 26.4933 29.1729 27.144 29.0983 27.976H34.6343ZM41.3241 31.656L44.0441 24.232H45.5961L42.1561 33H40.4601L37.0201 24.232H38.5881L41.3241 31.656ZM55.0289 28.28C55.0289 28.5573 55.0129 28.8507 54.9809 29.16H47.9729C48.0262 30.024 48.3195 30.7013 48.8529 31.192C49.3969 31.672 50.0529 31.912 50.8209 31.912C51.4502 31.912 51.9729 31.768 52.3889 31.48C52.8155 31.1813 53.1142 30.7867 53.2849 30.296H54.8529C54.6182 31.1387 54.1489 31.8267 53.4449 32.36C52.7409 32.8827 51.8662 33.144 50.8209 33.144C49.9889 33.144 49.2422 32.9573 48.5809 32.584C47.9302 32.2107 47.4182 31.6827 47.0449 31C46.6715 30.3067 46.4849 29.5067 46.4849 28.6C46.4849 27.6933 46.6662 26.8987 47.0289 26.216C47.3915 25.5333 47.8982 25.0107 48.5489 24.648C49.2102 24.2747 49.9675 24.088 50.8209 24.088C51.6529 24.088 52.3889 24.2693 53.0289 24.632C53.6689 24.9947 54.1595 25.496 54.5009 26.136C54.8529 26.7653 55.0289 27.48 55.0289 28.28ZM53.5249 27.976C53.5249 27.4213 53.4022 26.9467 53.1569 26.552C52.9115 26.1467 52.5755 25.8427 52.1489 25.64C51.7329 25.4267 51.2689 25.32 50.7569 25.32C50.0209 25.32 49.3915 25.5547 48.8689 26.024C48.3569 26.4933 48.0635 27.144 47.9889 27.976H53.5249ZM58.4068 21.16V33H56.9508V21.16H58.4068ZM64.5299 22.76V21.432H67.5379V33H66.0659V22.76H64.5299ZM75.2965 22.808C75.0192 22.808 74.7845 22.712 74.5925 22.52C74.4005 22.328 74.3045 22.0933 74.3045 21.816C74.3045 21.5387 74.4005 21.304 74.5925 21.112C74.7845 20.92 75.0192 20.824 75.2965 20.824C75.5632 20.824 75.7872 20.92 75.9685 21.112C76.1605 21.304 76.2565 21.5387 76.2565 21.816C76.2565 22.0933 76.1605 22.328 75.9685 22.52C75.7872 22.712 75.5632 22.808 75.2965 22.808ZM76.0005 24.232V33H74.5445V24.232H76.0005ZM80.258 25.432V30.6C80.258 31.0267 80.3487 31.3307 80.53 31.512C80.7113 31.6827 81.026 31.768 81.474 31.768H82.546V33H81.234C80.4233 33 79.8153 32.8133 79.41 32.44C79.0047 32.0667 78.802 31.4533 78.802 30.6V25.432H77.666V24.232H78.802V22.024H80.258V24.232H82.546V25.432H80.258ZM92.3101 28.28C92.3101 28.5573 92.2941 28.8507 92.2621 29.16H85.2541C85.3075 30.024 85.6008 30.7013 86.1341 31.192C86.6781 31.672 87.3341 31.912 88.1021 31.912C88.7315 31.912 89.2541 31.768 89.6701 31.48C90.0968 31.1813 90.3955 30.7867 90.5661 30.296H92.1341C91.8995 31.1387 91.4301 31.8267 90.7261 32.36C90.0221 32.8827 89.1475 33.144 88.1021 33.144C87.2701 33.144 86.5235 32.9573 85.8621 32.584C85.2115 32.2107 84.6995 31.6827 84.3261 31C83.9528 30.3067 83.7661 29.5067 83.7661 28.6C83.7661 27.6933 83.9475 26.8987 84.3101 26.216C84.6728 25.5333 85.1795 25.0107 85.8301 24.648C86.4915 24.2747 87.2488 24.088 88.1021 24.088C88.9341 24.088 89.6701 24.2693 90.3101 24.632C90.9501 24.9947 91.4408 25.496 91.7821 26.136C92.1341 26.7653 92.3101 27.48 92.3101 28.28ZM90.8061 27.976C90.8061 27.4213 90.6835 26.9467 90.4381 26.552C90.1928 26.1467 89.8568 25.8427 89.4301 25.64C89.0141 25.4267 88.5501 25.32 88.0381 25.32C87.3021 25.32 86.6728 25.5547 86.1501 26.024C85.6381 26.4933 85.3448 27.144 85.2701 27.976H90.8061ZM104.776 24.072C105.459 24.072 106.067 24.216 106.6 24.504C107.133 24.7813 107.555 25.2027 107.864 25.768C108.173 26.3333 108.328 27.0213 108.328 27.832V33H106.888V28.04C106.888 27.1653 106.669 26.4987 106.232 26.04C105.805 25.5707 105.224 25.336 104.488 25.336C103.731 25.336 103.128 25.5813 102.68 26.072C102.232 26.552 102.008 27.2507 102.008 28.168V33H100.568V28.04C100.568 27.1653 100.349 26.4987 99.912 26.04C99.4853 25.5707 98.904 25.336 98.168 25.336C97.4107 25.336 96.808 25.5813 96.36 26.072C95.912 26.552 95.688 27.2507 95.688 28.168V33H94.232V24.232H95.688V25.496C95.976 25.0373 96.36 24.6853 96.84 24.44C97.3307 24.1947 97.8693 24.072 98.456 24.072C99.192 24.072 99.8427 24.2373 100.408 24.568C100.973 24.8987 101.395 25.384 101.672 26.024C101.917 25.4053 102.323 24.9253 102.888 24.584C103.453 24.2427 104.083 24.072 104.776 24.072ZM114.358 22.76V21.432H117.366V33H115.894V22.76H114.358Z" fill="black"/>
<path d="M216.616 19.045C216.382 19.2794 216.25 19.5973 216.25 19.9287C216.25 20.2602 216.382 20.5781 216.616 20.8125L222.804 27L216.616 33.1875C216.389 33.4233 216.263 33.739 216.265 34.0668C216.268 34.3945 216.4 34.708 216.631 34.9398C216.863 35.1715 217.177 35.303 217.504 35.3058C217.832 35.3087 218.148 35.1827 218.384 34.955L225.455 27.8837C225.689 27.6493 225.821 27.3315 225.821 27C225.821 26.6685 225.689 26.3507 225.455 26.1162L218.384 19.045C218.149 18.8107 217.831 18.679 217.5 18.679C217.169 18.679 216.851 18.8107 216.616 19.045Z" fill="#20B15A"/>
<path d="M250 53H0V55H250V53Z" fill="#E5E5E5" mask="url(#path-1-inside-1_2_213)"/>
</svg>
