<svg width="93" height="44" viewBox="0 0 93 44" fill="none" xmlns="http://www.w3.org/2000/svg">
<path d="M17.904 25.728H13.248L12.448 28H10.544L14.528 16.864H16.64L20.624 28H18.704L17.904 25.728ZM17.392 24.24L15.584 19.072L13.76 24.24H17.392ZM24.1803 20.496C24.4896 20.0693 24.9109 19.7227 25.4443 19.456C25.9883 19.1787 26.5909 19.04 27.2523 19.04C28.0309 19.04 28.7349 19.2267 29.3643 19.6C29.9936 19.9733 30.4896 20.5067 30.8523 21.2C31.2149 21.8827 31.3963 22.6667 31.3963 23.552C31.3963 24.4373 31.2149 25.232 30.8523 25.936C30.4896 26.6293 29.9883 27.1733 29.3483 27.568C28.7189 27.952 28.0203 28.144 27.2523 28.144C26.5696 28.144 25.9616 28.0107 25.4283 27.744C24.9056 27.4773 24.4896 27.136 24.1803 26.72V28H22.3563V16.16H24.1803V20.496ZM29.5403 23.552C29.5403 22.944 29.4123 22.4213 29.1562 21.984C28.9109 21.536 28.5803 21.2 28.1643 20.976C27.7589 20.7413 27.3216 20.624 26.8523 20.624C26.3936 20.624 25.9563 20.7413 25.5403 20.976C25.1349 21.2107 24.8043 21.552 24.5483 22C24.3029 22.448 24.1803 22.976 24.1803 23.584C24.1803 24.192 24.3029 24.7253 24.5483 25.184C24.8043 25.632 25.1349 25.9733 25.5403 26.208C25.9563 26.4427 26.3936 26.56 26.8523 26.56C27.3216 26.56 27.7589 26.4427 28.1643 26.208C28.5803 25.9627 28.9109 25.6107 29.1562 25.152C29.4123 24.6933 29.5403 24.16 29.5403 23.552ZM37.024 28.144C36.192 28.144 35.44 27.9573 34.768 27.584C34.096 27.2 33.568 26.6667 33.184 25.984C32.8 25.2907 32.608 24.4907 32.608 23.584C32.608 22.688 32.8053 21.8933 33.2 21.2C33.5947 20.5067 34.1333 19.9733 34.816 19.6C35.4987 19.2267 36.2613 19.04 37.104 19.04C37.9467 19.04 38.7093 19.2267 39.392 19.6C40.0747 19.9733 40.6133 20.5067 41.008 21.2C41.4027 21.8933 41.6 22.688 41.6 23.584C41.6 24.48 41.3973 25.2747 40.992 25.968C40.5867 26.6613 40.032 27.2 39.328 27.584C38.6347 27.9573 37.8667 28.144 37.024 28.144ZM37.024 26.56C37.4933 26.56 37.9307 26.448 38.336 26.224C38.752 26 39.088 25.664 39.344 25.216C39.6 24.768 39.728 24.224 39.728 23.584C39.728 22.944 39.6053 22.4053 39.36 21.968C39.1147 21.52 38.7893 21.184 38.384 20.96C37.9787 20.736 37.5413 20.624 37.072 20.624C36.6027 20.624 36.1653 20.736 35.76 20.96C35.3653 21.184 35.0507 21.52 34.816 21.968C34.5813 22.4053 34.464 22.944 34.464 23.584C34.464 24.5333 34.704 25.2693 35.184 25.792C35.6747 26.304 36.288 26.56 37.024 26.56ZM51.3871 19.184V28H49.5631V26.96C49.2751 27.3227 48.8965 27.6107 48.4271 27.824C47.9685 28.0267 47.4778 28.128 46.9551 28.128C46.2618 28.128 45.6378 27.984 45.0831 27.696C44.5391 27.408 44.1071 26.9813 43.7871 26.416C43.4778 25.8507 43.3231 25.168 43.3231 24.368V19.184H45.1311V24.096C45.1311 24.8853 45.3285 25.4933 45.7231 25.92C46.1178 26.336 46.6565 26.544 47.3391 26.544C48.0218 26.544 48.5605 26.336 48.9551 25.92C49.3605 25.4933 49.5631 24.8853 49.5631 24.096V19.184H51.3871ZM55.9218 20.672V25.552C55.9218 25.8827 55.9964 26.1227 56.1458 26.272C56.3058 26.4107 56.5724 26.48 56.9458 26.48H58.0658V28H56.6258C55.8044 28 55.1751 27.808 54.7378 27.424C54.3004 27.04 54.0818 26.416 54.0818 25.552V20.672H53.0418V19.184H54.0818V16.992H55.9218V19.184H58.0658V20.672H55.9218ZM65.7111 16.88V23.968C65.7111 24.8107 65.9298 25.4453 66.3671 25.872C66.8151 26.2987 67.4338 26.512 68.2231 26.512C69.0231 26.512 69.6418 26.2987 70.0791 25.872C70.5271 25.4453 70.7511 24.8107 70.7511 23.968V16.88H72.5751V23.936C72.5751 24.8427 72.3778 25.6107 71.9831 26.24C71.5885 26.8693 71.0605 27.3387 70.3991 27.648C69.7378 27.9573 69.0071 28.112 68.2071 28.112C67.4071 28.112 66.6765 27.9573 66.0151 27.648C65.3645 27.3387 64.8471 26.8693 64.4631 26.24C64.0791 25.6107 63.8871 24.8427 63.8871 23.936V16.88H65.7111ZM78.15 28.144C77.4567 28.144 76.8327 28.0213 76.278 27.776C75.734 27.52 75.302 27.1787 74.982 26.752C74.662 26.3147 74.4913 25.8293 74.47 25.296H76.358C76.39 25.6693 76.566 25.984 76.886 26.24C77.2167 26.4853 77.6273 26.608 78.118 26.608C78.63 26.608 79.0247 26.512 79.302 26.32C79.59 26.1173 79.734 25.8613 79.734 25.552C79.734 25.2213 79.574 24.976 79.254 24.816C78.9447 24.656 78.4487 24.48 77.766 24.288C77.1047 24.1067 76.566 23.9307 76.15 23.76C75.734 23.5893 75.3713 23.328 75.062 22.976C74.7633 22.624 74.614 22.16 74.614 21.584C74.614 21.1147 74.7527 20.688 75.03 20.304C75.3073 19.9093 75.702 19.6 76.214 19.376C76.7367 19.152 77.334 19.04 78.006 19.04C79.0087 19.04 79.814 19.296 80.422 19.808C81.0407 20.3093 81.3713 20.9973 81.414 21.872H79.59C79.558 21.4773 79.398 21.1627 79.11 20.928C78.822 20.6933 78.4327 20.576 77.942 20.576C77.462 20.576 77.094 20.6667 76.838 20.848C76.582 21.0293 76.454 21.2693 76.454 21.568C76.454 21.8027 76.5393 22 76.71 22.16C76.8807 22.32 77.0887 22.448 77.334 22.544C77.5793 22.6293 77.942 22.7413 78.422 22.88C79.062 23.0507 79.5847 23.2267 79.99 23.408C80.406 23.5787 80.7633 23.8347 81.062 24.176C81.3607 24.5173 81.5153 24.9707 81.526 25.536C81.526 26.0373 81.3873 26.4853 81.11 26.88C80.8327 27.2747 80.438 27.584 79.926 27.808C79.4247 28.032 78.8327 28.144 78.15 28.144Z" fill="black"/>
</svg>
