<svg width="76" height="76" viewBox="0 0 76 76" fill="none" xmlns="http://www.w3.org/2000/svg">
<rect x="24.0414" width="56.8869" height="56.8869" rx="10.6663" transform="rotate(25 24.0414 0)" fill="#FF8345"/>
<path d="M38.7363 51.2074C38.6027 51.149 38.4872 51.0546 38.4033 50.9345L34.2399 45.4545L28.1606 45.8051C27.1675 45.8651 26.3123 45.108 26.2528 44.1139C26.2519 44.1017 26.2511 44.0896 26.2507 44.0763C26.2368 43.6658 26.3526 43.2634 26.5819 42.9231L30.1286 37.7849L28.0432 31.9428C27.7082 30.9758 28.2021 29.9168 29.1586 29.5508C29.5332 29.4037 29.9458 29.3882 30.3297 29.5071L36.1301 31.2102L40.8799 27.3143C41.6354 26.6728 42.7683 26.7643 43.4109 27.5204C43.6897 27.8478 43.8405 28.2647 43.8379 28.6937L43.9093 34.8586L48.9561 38.2254C49.3649 38.4958 49.6459 38.9224 49.7349 39.4045C49.8935 40.3207 49.3847 41.2211 48.5186 41.5586L42.7431 43.6777L41.889 46.9395C41.7549 47.4262 41.2565 47.7182 40.7669 47.5932C40.2873 47.4663 40.0014 46.9747 40.1287 46.494L40.9732 43.2276C41.1367 42.633 41.5742 42.1518 42.151 41.9357L47.9492 39.7932L42.9074 36.4157C42.3979 36.0696 42.101 35.4865 42.1197 34.8715L42.0394 28.7285L37.2148 32.681C36.7552 33.0918 36.1182 33.238 35.5256 33.0702L29.7252 31.3672L31.785 37.166C31.9921 37.7398 31.9082 38.3768 31.5619 38.8783L28.0152 44.0164L34.0885 43.6761C34.6959 43.6298 35.2834 43.9037 35.6384 44.3988L39.7943 49.8753C40.0448 50.2157 40.0348 50.6831 39.7697 51.0132C39.5121 51.3469 39.0597 51.4589 38.6754 51.2876L38.7363 51.2074Z" fill="white"/>
</svg>
