<svg width="81" height="81" viewBox="0 0 81 81" fill="none" xmlns="http://www.w3.org/2000/svg">
<rect y="40.2251" width="56.8869" height="56.8869" rx="10.6663" transform="rotate(-45 0 40.2251)" fill="#48B774"/>
<path fill-rule="evenodd" clip-rule="evenodd" d="M39.1893 28.8263L37.5443 30.4714C36.1699 29.4087 34.1821 29.5076 32.9226 30.7672L30.7588 32.9309C29.4993 34.1905 29.3995 36.1774 30.4622 37.5518L28.8263 39.1893C27.0623 40.9533 27.0589 43.8194 28.8179 45.5784L31.7234 48.4838C31.9346 48.695 32.2371 48.7863 32.5304 48.726C35.3948 48.1394 38.1954 46.8555 40.6307 45.0152C40.9953 44.7446 41.0883 44.2543 40.867 43.8655C40.3743 42.999 40.5167 41.943 41.2215 41.2383C41.9188 40.541 42.9906 40.4028 43.8261 40.8997C44.1789 41.11 44.6256 41.0489 44.9088 40.7656C44.9382 40.7363 44.965 40.7061 44.9901 40.6726C46.8447 38.2231 48.1335 35.409 48.7185 32.5379C48.7771 32.2446 48.6866 31.9429 48.4754 31.7317L45.57 28.8263C43.811 27.0673 40.9483 27.0673 39.1893 28.8263ZM46.8748 32.6452C46.3536 34.8777 45.3656 37.0641 43.9887 39.0292C42.6018 38.5608 41.038 38.9077 39.9645 39.9812C38.8994 41.0464 38.5466 42.6126 38.9966 44.0063C37.0432 45.3747 34.8651 46.3611 32.6368 46.8832L30.075 44.3214C29.009 43.2554 29.0124 41.5173 30.0842 40.4455L32.3268 38.1996C32.4944 38.032 32.5874 37.8066 32.5874 37.5702C32.5857 37.3339 32.4927 37.1085 32.3259 36.9417L32.015 36.6325C31.3412 35.9587 31.3421 34.8618 32.0159 34.188L34.1796 32.0242C34.7436 31.4602 35.6051 31.368 36.2663 31.7493L34.0036 34.012C33.6567 34.3589 33.6567 34.9221 34.0036 35.269C34.3506 35.616 34.9137 35.616 35.2607 35.269L40.4464 30.0833C41.5123 29.0174 43.247 29.0174 44.313 30.0833L46.8748 32.6452ZM43.6846 42.4363L44.769 43.5207C45.116 43.8676 45.116 44.4308 44.769 44.7777C44.4221 45.1247 43.859 45.1247 43.512 44.7777L42.4276 43.6933C42.0807 43.3464 42.0807 42.7832 42.4276 42.4363C42.7746 42.0894 43.3377 42.0894 43.6846 42.4363ZM50.2314 34.7866C49.902 35.1159 49.8962 35.6347 50.1928 35.9816C50.1928 35.9816 51.5295 37.5764 51.9652 38.0658C52.4463 38.6088 52.7957 39.3739 52.8544 40.0142C52.939 40.9184 52.6784 41.5662 51.9242 42.3238C51.4289 42.8207 48.7539 45.4974 46.7326 47.5187C46.3848 47.8664 46.3848 48.4296 46.7318 48.7765C47.0787 49.1235 47.6419 49.1235 47.9888 48.7765C49.9397 46.8256 52.7161 44.0476 53.1837 43.5783C54.2991 42.4578 54.7575 41.272 54.6251 39.8491C54.5304 38.8275 54.0335 37.7205 53.2952 36.8867C52.9909 36.5444 52.2172 35.6407 51.7863 35.1375L51.7862 35.1374L51.7859 35.1371C51.6093 34.9308 51.4904 34.7919 51.485 34.7866C51.1389 34.4405 50.5775 34.4405 50.2314 34.7866ZM42.3154 51.9322C42.4805 51.7688 42.8207 51.4285 43.2674 50.9819C43.6143 50.6349 44.18 50.6324 44.5269 50.9794C44.8739 51.3263 44.8705 51.8928 44.5228 52.2406C44.0702 52.6931 43.74 53.0233 43.5708 53.1909C42.4495 54.3071 41.2637 54.7655 39.8399 54.6323C38.82 54.5376 37.7121 54.0415 36.8791 53.3024C36.5412 53.0031 35.6585 52.2474 35.1512 51.8132C34.9327 51.6261 34.7838 51.4986 34.7782 51.4931C34.4321 51.147 34.4321 50.5855 34.7782 50.2394C35.1076 49.91 35.6255 49.905 35.9741 50.2017C35.9741 50.2017 37.5688 51.5383 38.0582 51.9724C38.6013 52.4534 39.3656 52.8037 40.005 52.8616C40.9117 52.947 41.5587 52.6856 42.3154 51.9322Z" fill="white"/>
</svg>
