<svg width="57" height="57" viewBox="0 0 57 57" fill="none" xmlns="http://www.w3.org/2000/svg">
<rect width="56.8869" height="56.8869" rx="10.6663" fill="#48B774"/>
<path fill-rule="evenodd" clip-rule="evenodd" d="M40.2949 27.0472C40.2949 27.5415 39.8931 27.9432 39.3989 27.9432H39.3883V27.9219C38.8881 27.9219 38.4828 27.5178 38.4816 27.0176V27.0153V24.0026C38.4816 20.3844 36.5024 18.4052 32.8949 18.4052H24.0063C20.3963 18.4052 18.4053 20.3962 18.4053 24.0026V32.8912C18.4053 36.4869 20.3963 38.478 24.0027 38.478H32.8913C36.4977 38.478 38.4781 36.4869 38.4781 32.8912C38.4781 32.3911 38.8834 31.9846 39.3847 31.9846C39.886 31.9846 40.2913 32.3911 40.2913 32.8912C40.2949 37.4599 37.46 40.2948 32.8949 40.2948H24.0027C19.4269 40.2948 16.592 37.4599 16.592 32.8947V24.0062C16.592 19.4268 19.4269 16.5919 24.0027 16.5919H32.8913C37.4387 16.5919 40.2949 19.4268 40.2949 24.0026V27.0472ZM27.0374 30L32.034 25.0023C32.3812 24.655 32.9442 24.655 33.2914 25.0023C33.6387 25.3495 33.6387 25.9125 33.2914 26.2597L27.6655 31.8856C27.4984 32.0515 27.2721 32.1451 27.0374 32.1451C26.8004 32.1451 26.5752 32.0515 26.4081 31.8856L23.5958 29.0721C23.2485 28.7248 23.2485 28.1619 23.5958 27.8146C23.943 27.4674 24.506 27.4674 24.8532 27.8146L27.0374 30Z" fill="white"/>
</svg>
