<svg width="41" height="41" viewBox="0 0 41 41" fill="none" xmlns="http://www.w3.org/2000/svg">
<path fill-rule="evenodd" clip-rule="evenodd" d="M19.1893 8.82631L17.5443 10.4714C16.1699 9.40874 14.1821 9.50762 12.9226 10.7672L10.7588 12.9309C9.49926 14.1905 9.39954 16.1774 10.4622 17.5518L8.82633 19.1893C7.06229 20.9533 7.05894 23.8194 8.81795 25.5784L11.7234 28.4838C11.9346 28.695 12.2371 28.7863 12.5304 28.726C15.3948 28.1394 18.1954 26.8555 20.6307 25.0152C20.9953 24.7446 21.0883 24.2543 20.867 23.8655C20.3743 22.999 20.5167 21.943 21.2215 21.2383C21.9188 20.541 22.9906 20.4028 23.8261 20.8997C24.1789 21.11 24.6256 21.0489 24.9088 20.7656C24.9382 20.7363 24.965 20.7061 24.9901 20.6726C26.8447 18.2231 28.1335 15.409 28.7185 12.5379C28.7771 12.2446 28.6866 11.9429 28.4754 11.7317L25.57 8.82631C23.811 7.0673 20.9483 7.0673 19.1893 8.82631ZM26.8748 12.6452C26.3536 14.8777 25.3656 17.0641 23.9887 19.0292C22.6018 18.5608 21.038 18.9077 19.9645 19.9812C18.8994 21.0464 18.5466 22.6126 18.9966 24.0063C17.0432 25.3747 14.8651 26.3611 12.6368 26.8832L10.075 24.3214C9.00903 23.2554 9.01238 21.5173 10.0842 20.4455L12.3268 18.1996C12.4944 18.032 12.5874 17.8066 12.5874 17.5702C12.5857 17.3339 12.4927 17.1085 12.3259 16.9417L12.015 16.6325C11.3412 15.9587 11.3421 14.8618 12.0159 14.188L14.1796 12.0242C14.7436 11.4602 15.6051 11.368 16.2663 11.7493L14.0036 14.012C13.6567 14.3589 13.6567 14.9221 14.0036 15.269C14.3506 15.616 14.9137 15.616 15.2607 15.269L20.4464 10.0833C21.5123 9.01738 23.247 9.01738 24.313 10.0833L26.8748 12.6452ZM23.6846 22.4363L24.769 23.5207C25.116 23.8676 25.116 24.4308 24.769 24.7777C24.4221 25.1247 23.859 25.1247 23.512 24.7777L22.4276 23.6933C22.0807 23.3464 22.0807 22.7832 22.4276 22.4363C22.7746 22.0894 23.3377 22.0894 23.6846 22.4363ZM30.2314 14.7866C29.902 15.1159 29.8962 15.6347 30.1928 15.9816C30.1928 15.9816 31.5295 17.5764 31.9652 18.0658C32.4463 18.6088 32.7957 19.3739 32.8544 20.0142C32.939 20.9184 32.6784 21.5662 31.9242 22.3238C31.4289 22.8207 28.7539 25.4974 26.7326 27.5187C26.3848 27.8664 26.3848 28.4296 26.7318 28.7765C27.0787 29.1235 27.6419 29.1235 27.9888 28.7765C29.9397 26.8256 32.7161 24.0476 33.1837 23.5783C34.2991 22.4578 34.7575 21.272 34.6251 19.8491C34.5304 18.8275 34.0335 17.7205 33.2952 16.8867C32.9909 16.5444 32.2172 15.6407 31.7863 15.1375L31.7862 15.1374L31.7859 15.1371C31.6093 14.9308 31.4904 14.7919 31.485 14.7866C31.1389 14.4405 30.5775 14.4405 30.2314 14.7866ZM22.3154 31.9322C22.4805 31.7688 22.8207 31.4285 23.2674 30.9819C23.6143 30.6349 24.18 30.6324 24.5269 30.9794C24.8739 31.3263 24.8705 31.8928 24.5228 32.2406C24.0702 32.6931 23.74 33.0233 23.5708 33.1909C22.4495 34.3071 21.2637 34.7655 19.8399 34.6323C18.82 34.5376 17.7121 34.0415 16.8791 33.3024C16.5412 33.0031 15.6585 32.2474 15.1512 31.8132C14.9327 31.6261 14.7838 31.4986 14.7782 31.4931C14.4321 31.147 14.4321 30.5855 14.7782 30.2394C15.1076 29.91 15.6255 29.905 15.9741 30.2017C15.9741 30.2017 17.5688 31.5383 18.0582 31.9724C18.6013 32.4534 19.3656 32.8037 20.005 32.8616C20.9117 32.947 21.5587 32.6856 22.3154 31.9322Z" fill="white"/>
</svg>
