<svg width="39" height="39" viewBox="0 0 39 39" fill="none" xmlns="http://www.w3.org/2000/svg">
<path d="M20.7363 33.2074C20.6027 33.149 20.4872 33.0546 20.4033 32.9345L16.2399 27.4545L10.1606 27.8051C9.16753 27.8651 8.3123 27.108 8.25279 26.1139C8.25193 26.1017 8.25107 26.0896 8.2507 26.0763C8.23684 25.6658 8.35256 25.2634 8.58186 24.9231L12.1286 19.7849L10.0432 13.9428C9.70821 12.9758 10.2021 11.9168 11.1586 11.5508C11.5332 11.4037 11.9458 11.3882 12.3297 11.5071L18.1301 13.2102L22.8799 9.31433C23.6354 8.67282 24.7683 8.76434 25.4109 9.52036C25.6897 9.84783 25.8405 10.2647 25.8379 10.6937L25.9093 16.8586L30.9561 20.2254C31.3649 20.4958 31.6459 20.9224 31.7349 21.4045C31.8935 22.3207 31.3847 23.2211 30.5186 23.5586L24.7431 25.6777L23.889 28.9395C23.7549 29.4262 23.2565 29.7182 22.7669 29.5932C22.2873 29.4663 22.0014 28.9747 22.1287 28.494L22.9732 25.2276C23.1367 24.633 23.5742 24.1518 24.151 23.9357L29.9492 21.7932L24.9074 18.4157C24.3979 18.0696 24.101 17.4865 24.1197 16.8715L24.0394 10.7285L19.2148 14.681C18.7552 15.0918 18.1182 15.238 17.5256 15.0702L11.7252 13.3672L13.785 19.166C13.9921 19.7398 13.9082 20.3768 13.5619 20.8783L10.0152 26.0164L16.0885 25.6761C16.6959 25.6298 17.2834 25.9037 17.6384 26.3988L21.7943 31.8753C22.0448 32.2157 22.0348 32.6831 21.7697 33.0132C21.5121 33.3469 21.0597 33.4589 20.6754 33.2876L20.7363 33.2074Z" fill="white"/>
</svg>
