<svg width="29" height="29" viewBox="0 0 29 29" fill="none" xmlns="http://www.w3.org/2000/svg">
<path fill-rule="evenodd" clip-rule="evenodd" d="M26.2949 13.0472C26.2949 13.5415 25.8931 13.9432 25.3989 13.9432H25.3883V13.9219C24.8881 13.9219 24.4828 13.5178 24.4816 13.0176V13.0153V10.0026C24.4816 6.38438 22.5024 4.40519 18.8949 4.40519H10.0063C6.39635 4.40519 4.40531 6.39623 4.40531 10.0026V18.8912C4.40531 22.4869 6.39635 24.478 10.0027 24.478H18.8913C22.4977 24.478 24.4781 22.4869 24.4781 18.8912C24.4781 18.3911 24.8834 17.9846 25.3847 17.9846C25.886 17.9846 26.2913 18.3911 26.2913 18.8912C26.2949 23.4599 23.46 26.2948 18.8949 26.2948H10.0027C5.4269 26.2948 2.59204 23.4599 2.59204 18.8947V10.0062C2.59204 5.42678 5.4269 2.59192 10.0027 2.59192H18.8913C23.4387 2.59192 26.2949 5.42678 26.2949 10.0026V13.0472ZM13.0374 16L18.034 11.0023C18.3812 10.655 18.9442 10.655 19.2914 11.0023C19.6387 11.3495 19.6387 11.9125 19.2914 12.2597L13.6655 17.8856C13.4984 18.0515 13.2721 18.1451 13.0374 18.1451C12.8004 18.1451 12.5752 18.0515 12.4081 17.8856L9.59576 15.0721C9.24851 14.7248 9.24851 14.1619 9.59576 13.8146C9.94301 13.4674 10.506 13.4674 10.8532 13.8146L13.0374 16Z" fill="white"/>
</svg>
